# xmcd
#
# Track frame offsets:
#	150
#	12619
#	27251
#	46668
#	65336
#	82838
#	97892
#	109930
#	122924
#
# Disc length: 1966 seconds
#
# Revision: 1
# Processed by: cddbd v1.5.2PL0 Copyright (c) Steve Scherf et al.
# Submitted via: audiograbber 1.83.01
#
DISCID=6807ac09
DTITLE=Goose Creek Symphony - The Same Thing Again
DYEAR=2008
DGENRE=
TTITLE0=Tulsa Turnaround
TTITLE1=Too Much Of A Good Thing
TTITLE2=Just Another Rock and Roll Song
TTITLE3=The Same Thing Again
TTITLE4=Sweet Lucy
TTITLE5=Hard On Wives
TTITLE6=Cindy
TTITLE7=Mary
TTITLE8=Sailors
EXTD=
EXTT0=
EXTT1=
EXTT2=
EXTT3=
EXTT4=
EXTT5=
EXTT6=
EXTT7=
EXTT8=
PLAYORDER=
